<svg width="138" height="28" viewBox="0 0 138 28" fill="none" xmlns="http://www.w3.org/2000/svg">
<path d="M13.1141 16.9203C14.9113 15.6992 16.25 13.818 16.25 11.5C16.25 9.8424 15.5915 8.25269 14.4194 7.08058C13.2473 5.90848 11.6576 5.25 10 5.25C8.3424 5.25 6.75269 5.90848 5.58058 7.08058C4.40848 8.25269 3.75 9.8424 3.75 11.5V19.5691C3.75 21.298 5.14609 22.75 6.875 22.75C8.60391 22.75 9.48555 21.7367 9.89414 21.1875C10.4711 20.4137 11.5234 18.0016 13.1141 16.9203Z" stroke="#206EFF" stroke-width="1.25" stroke-linecap="round" stroke-linejoin="round"/>
<path d="M6.25 15.875V11.1875C6.25 9.29687 7.9375 7.75 10 7.75C12.0625 7.75 13.75 9.29687 13.75 11.1875" stroke="#206EFF" stroke-width="1.25" stroke-linecap="round" stroke-linejoin="round"/>
<path d="M6.25 13.3359C7.22656 12.6328 9.36797 12.75 9.36797 12.75C10.3836 12.75 10.9762 13.8992 10.3836 14.7266C10.3836 14.7266 8.94375 16.3828 8.74844 17.125" stroke="#206EFF" stroke-width="1.25" stroke-linecap="round" stroke-linejoin="round"/>
<path d="M29.6829 20.716C28.8429 20.716 28.0809 20.524 27.3969 20.14C26.7249 19.756 26.1909 19.216 25.7949 18.52C25.3989 17.812 25.2009 16.984 25.2009 16.036C25.2009 15.112 25.3929 14.302 25.7769 13.606C26.1609 12.898 26.6889 12.346 27.3609 11.95C28.0329 11.554 28.8069 11.356 29.6829 11.356C30.7389 11.356 31.6269 11.632 32.3469 12.184C33.0789 12.736 33.5409 13.474 33.7329 14.398H32.1849C32.0649 13.846 31.7709 13.42 31.3029 13.12C30.8349 12.808 30.2889 12.652 29.6649 12.652C29.0289 12.652 28.4949 12.808 28.0629 13.12C27.6309 13.432 27.3009 13.846 27.0729 14.362C26.8569 14.878 26.7489 15.436 26.7489 16.036C26.7489 16.696 26.8749 17.284 27.1269 17.8C27.3789 18.316 27.7209 18.718 28.1529 19.006C28.5969 19.294 29.1009 19.438 29.6649 19.438C30.2889 19.438 30.8349 19.288 31.3029 18.988C31.7709 18.676 32.0649 18.238 32.1849 17.674H33.7329C33.6129 18.274 33.3669 18.802 32.9949 19.258C32.6229 19.714 32.1549 20.074 31.5909 20.338C31.0269 20.59 30.3909 20.716 29.6829 20.716ZM39.9665 20.716C39.1505 20.716 38.4005 20.536 37.7165 20.176C37.0325 19.804 36.4865 19.27 36.0785 18.574C35.6705 17.866 35.4665 17.014 35.4665 16.018C35.4665 15.07 35.6645 14.248 36.0605 13.552C36.4685 12.856 37.0145 12.316 37.6985 11.932C38.3945 11.548 39.1745 11.356 40.0385 11.356C40.8665 11.356 41.6225 11.536 42.3065 11.896C43.0025 12.256 43.5605 12.784 43.9805 13.48C44.4005 14.176 44.6105 15.022 44.6105 16.018C44.6105 16.93 44.4125 17.74 44.0165 18.448C43.6205 19.156 43.0685 19.714 42.3605 20.122C41.6645 20.518 40.8665 20.716 39.9665 20.716ZM39.9665 19.402C40.5545 19.402 41.0825 19.264 41.5505 18.988C42.0185 18.7 42.3905 18.304 42.6665 17.8C42.9425 17.296 43.0805 16.702 43.0805 16.018C43.0805 15.37 42.9605 14.794 42.7205 14.29C42.4805 13.786 42.1325 13.39 41.6765 13.102C41.2205 12.814 40.6685 12.67 40.0205 12.67C39.3605 12.67 38.8025 12.82 38.3465 13.12C37.9025 13.42 37.5665 13.822 37.3385 14.326C37.1105 14.83 36.9965 15.394 36.9965 16.018C36.9965 16.81 37.1405 17.458 37.4285 17.962C37.7165 18.454 38.0885 18.82 38.5445 19.06C39.0005 19.288 39.4745 19.402 39.9665 19.402ZM46.7078 20.5V11.572H48.0758L48.1658 13.174C48.4538 12.61 48.8678 12.166 49.4078 11.842C49.9478 11.518 50.5598 11.356 51.2438 11.356C52.2998 11.356 53.1398 11.68 53.7638 12.328C54.3998 12.964 54.7178 13.948 54.7178 15.28V20.5H53.2058V15.442C53.2058 14.518 53.0138 13.822 52.6298 13.354C52.2458 12.886 51.6698 12.652 50.9018 12.652C50.1338 12.652 49.4918 12.934 48.9758 13.498C48.4718 14.05 48.2198 14.842 48.2198 15.874V20.5H46.7078ZM60.5542 20.5C59.7382 20.5 59.0962 20.302 58.6282 19.906C58.1602 19.51 57.9262 18.796 57.9262 17.764V12.85H56.3782V11.572H57.9262V9.43H59.4382V11.572H61.9402V12.85H59.4382V17.764C59.4382 18.328 59.5522 18.712 59.7802 18.916C60.0082 19.108 60.4102 19.204 60.9862 19.204H61.9402V20.5H60.5542ZM66.9571 20.716C66.3451 20.716 65.7871 20.614 65.2831 20.41C64.7791 20.206 64.3771 19.9 64.0771 19.492C63.7891 19.072 63.6451 18.562 63.6451 17.962C63.6451 17.266 63.8251 16.714 64.1851 16.306C64.5451 15.886 65.0191 15.586 65.6071 15.406C66.2071 15.214 66.8491 15.118 67.5331 15.118H69.9451C69.9451 14.494 69.8371 14.002 69.6211 13.642C69.4171 13.282 69.1471 13.024 68.8111 12.868C68.4751 12.712 68.1031 12.634 67.6951 12.634C67.1071 12.634 66.5971 12.778 66.1651 13.066C65.7451 13.342 65.4811 13.774 65.3731 14.362H63.8251C63.8851 13.714 64.1011 13.168 64.4731 12.724C64.8451 12.28 65.3131 11.944 65.8771 11.716C66.4531 11.476 67.0591 11.356 67.6951 11.356C68.5951 11.356 69.3211 11.524 69.8731 11.86C70.4251 12.184 70.8271 12.622 71.0791 13.174C71.3311 13.726 71.4571 14.338 71.4571 15.01V17.746C71.4571 18.19 71.5111 18.526 71.6191 18.754C71.7271 18.982 72.0031 19.12 72.4471 19.168V20.5C72.0511 20.5 71.6911 20.452 71.3671 20.356C71.0431 20.248 70.7671 20.08 70.5391 19.852C70.3231 19.612 70.1671 19.3 70.0711 18.916C69.7711 19.42 69.3571 19.846 68.8291 20.194C68.3131 20.542 67.6891 20.716 66.9571 20.716ZM67.1911 19.438C67.7911 19.438 68.2951 19.288 68.7031 18.988C69.1111 18.676 69.4171 18.28 69.6211 17.8C69.8371 17.32 69.9451 16.822 69.9451 16.306V16.288H67.6591C67.2391 16.288 66.8431 16.336 66.4711 16.432C66.0991 16.516 65.7991 16.678 65.5711 16.918C65.3431 17.146 65.2291 17.47 65.2291 17.89C65.2291 18.43 65.4211 18.826 65.8051 19.078C66.1891 19.318 66.6511 19.438 67.1911 19.438ZM74.2703 24.46V11.572H75.6383L75.7823 13.048C76.0703 12.616 76.4783 12.226 77.0063 11.878C77.5463 11.53 78.2303 11.356 79.0583 11.356C79.9583 11.356 80.7383 11.56 81.3983 11.968C82.0583 12.376 82.5683 12.934 82.9283 13.642C83.2883 14.35 83.4683 15.154 83.4683 16.054C83.4683 16.942 83.2883 17.74 82.9283 18.448C82.5683 19.156 82.0523 19.714 81.3803 20.122C80.7203 20.518 79.9403 20.716 79.0403 20.716C78.3083 20.716 77.6543 20.566 77.0783 20.266C76.5143 19.966 76.0823 19.546 75.7823 19.006V24.46H74.2703ZM78.8783 19.402C79.4903 19.402 80.0243 19.264 80.4803 18.988C80.9363 18.7 81.2903 18.304 81.5423 17.8C81.8063 17.284 81.9383 16.696 81.9383 16.036C81.9383 15.4 81.8123 14.83 81.5603 14.326C81.3203 13.81 80.9723 13.408 80.5163 13.12C80.0603 12.82 79.5143 12.67 78.8783 12.67C78.2783 12.67 77.7443 12.814 77.2763 13.102C76.8203 13.378 76.4603 13.768 76.1963 14.272C75.9443 14.776 75.8183 15.364 75.8183 16.036C75.8183 16.66 75.9443 17.23 76.1963 17.746C76.4483 18.25 76.8023 18.652 77.2583 18.952C77.7143 19.252 78.2543 19.402 78.8783 19.402ZM85.5731 20.5V11.572H86.9411L87.0671 13.282C87.3431 12.694 87.7631 12.226 88.3271 11.878C88.8911 11.53 89.5871 11.356 90.4151 11.356V12.94H90.0011C89.0171 12.94 88.2851 13.204 87.8051 13.732C87.3251 14.26 87.0851 15.016 87.0851 16V20.5H85.5731ZM95.0821 20.716C94.4701 20.716 93.9121 20.614 93.4081 20.41C92.9041 20.206 92.5021 19.9 92.2021 19.492C91.9141 19.072 91.7701 18.562 91.7701 17.962C91.7701 17.266 91.9501 16.714 92.3101 16.306C92.6701 15.886 93.1441 15.586 93.7321 15.406C94.3321 15.214 94.9741 15.118 95.6581 15.118H98.0701C98.0701 14.494 97.9621 14.002 97.7461 13.642C97.5421 13.282 97.2721 13.024 96.9361 12.868C96.6001 12.712 96.2281 12.634 95.8201 12.634C95.2321 12.634 94.7221 12.778 94.2901 13.066C93.8701 13.342 93.6061 13.774 93.4981 14.362H91.9501C92.0101 13.714 92.2261 13.168 92.5981 12.724C92.9701 12.28 93.4381 11.944 94.0021 11.716C94.5781 11.476 95.1841 11.356 95.8201 11.356C96.7201 11.356 97.4461 11.524 97.9981 11.86C98.5501 12.184 98.9521 12.622 99.2041 13.174C99.4561 13.726 99.5821 14.338 99.5821 15.01V17.746C99.5821 18.19 99.6361 18.526 99.7441 18.754C99.8521 18.982 100.128 19.12 100.572 19.168V20.5C100.176 20.5 99.8161 20.452 99.4921 20.356C99.1681 20.248 98.8921 20.08 98.6641 19.852C98.4481 19.612 98.2921 19.3 98.1961 18.916C97.8961 19.42 97.4821 19.846 96.9541 20.194C96.4381 20.542 95.8141 20.716 95.0821 20.716ZM95.3161 19.438C95.9161 19.438 96.4201 19.288 96.8281 18.988C97.2361 18.676 97.5421 18.28 97.7461 17.8C97.9621 17.32 98.0701 16.822 98.0701 16.306V16.288H95.7841C95.3641 16.288 94.9681 16.336 94.5961 16.432C94.2241 16.516 93.9241 16.678 93.6961 16.918C93.4681 17.146 93.3541 17.47 93.3541 17.89C93.3541 18.43 93.5461 18.826 93.9301 19.078C94.3141 19.318 94.7761 19.438 95.3161 19.438ZM102.395 20.5V11.572H103.763L103.871 12.868C104.159 12.388 104.543 12.016 105.023 11.752C105.503 11.488 106.043 11.356 106.643 11.356C107.351 11.356 107.957 11.5 108.461 11.788C108.977 12.076 109.373 12.514 109.649 13.102C109.961 12.562 110.387 12.136 110.927 11.824C111.479 11.512 112.073 11.356 112.709 11.356C113.429 11.356 114.047 11.5 114.563 11.788C115.091 12.064 115.499 12.496 115.787 13.084C116.075 13.66 116.219 14.392 116.219 15.28V20.5H114.725V15.442C114.725 14.518 114.539 13.822 114.167 13.354C113.795 12.886 113.261 12.652 112.565 12.652C111.845 12.652 111.245 12.934 110.765 13.498C110.297 14.05 110.063 14.842 110.063 15.874V20.5H108.551V15.442C108.551 14.518 108.365 13.822 107.993 13.354C107.621 12.886 107.087 12.652 106.391 12.652C105.683 12.652 105.089 12.934 104.609 13.498C104.141 14.05 103.907 14.842 103.907 15.874V20.5H102.395ZM119.415 9.592C119.115 9.592 118.863 9.496 118.659 9.304C118.467 9.1 118.371 8.848 118.371 8.548C118.371 8.26 118.467 8.02 118.659 7.828C118.863 7.636 119.115 7.54 119.415 7.54C119.703 7.54 119.949 7.636 120.153 7.828C120.357 8.02 120.459 8.26 120.459 8.548C120.459 8.848 120.357 9.1 120.153 9.304C119.949 9.496 119.703 9.592 119.415 9.592ZM118.659 20.5V11.572H120.171V20.5H118.659ZM122.804 20.5V11.572H124.172L124.28 12.868C124.568 12.388 124.952 12.016 125.432 11.752C125.912 11.488 126.452 11.356 127.052 11.356C127.76 11.356 128.366 11.5 128.87 11.788C129.386 12.076 129.782 12.514 130.058 13.102C130.37 12.562 130.796 12.136 131.336 11.824C131.888 11.512 132.482 11.356 133.118 11.356C133.838 11.356 134.456 11.5 134.972 11.788C135.5 12.064 135.908 12.496 136.196 13.084C136.484 13.66 136.628 14.392 136.628 15.28V20.5H135.134V15.442C135.134 14.518 134.948 13.822 134.576 13.354C134.204 12.886 133.67 12.652 132.974 12.652C132.254 12.652 131.654 12.934 131.174 13.498C130.706 14.05 130.472 14.842 130.472 15.874V20.5H128.96V15.442C128.96 14.518 128.774 13.822 128.402 13.354C128.03 12.886 127.496 12.652 126.8 12.652C126.092 12.652 125.498 12.934 125.018 13.498C124.55 14.05 124.316 14.842 124.316 15.874V20.5H122.804Z" fill="#206EFF"/>
</svg>
