<svg width="447" height="447" viewBox="0 0 447 447" fill="none" xmlns="http://www.w3.org/2000/svg">
<path d="M85.8824 223.94C37.4126 209.244 31.0544 137.01 87.6774 119.884C103.913 114.973 119.532 119.188 130.951 124.94" stroke="white" stroke-width="6.8884" stroke-miterlimit="10" stroke-linecap="round" stroke-linejoin="round"/>
<path d="M207.835 67.6401C200.228 79.1021 194.952 92.9287 192.21 108.086C184.056 153.144 197.494 203.474 131.501 222.695C113.634 227.898 98.3252 227.713 85.8818 223.94" stroke="white" stroke-width="6.88855" stroke-miterlimit="10" stroke-linecap="round" stroke-linejoin="round"/>
<path d="M296.999 171.722C296.999 171.722 339.406 152.987 343.789 114.595C348.571 72.687 323.318 40.5575 278.546 35.3169C246.922 31.6148 222.841 45.0293 207.835 67.6403" stroke="#152842" stroke-width="6.8884" stroke-miterlimit="10" stroke-linecap="round" stroke-linejoin="round"/>
<path d="M282.617 304.15C282.627 304.403 282.627 304.654 282.617 304.897C282.423 310.187 278.519 314.488 273.645 314.701C273.518 314.72 273.402 314.72 273.277 314.72L199.808 314.363L126.339 314.003H126.33C124.741 314.003 123.268 313.578 121.97 312.821C119.683 310.496 118.482 306.959 119.17 303.288L134.313 222.475L149.457 141.663C150.193 137.758 152.925 134.677 156.48 133.757L212.094 120.231L267.706 106.706C270.041 106.105 272.327 106.503 274.255 107.637C274.691 108.082 275.098 108.576 275.447 109.128C276.503 110.708 277.153 112.646 277.21 114.786L279.914 209.469L282.617 304.15Z" fill="#AAC3F3"/>
<path d="M282.617 304.897C282.364 310.158 278.499 314.42 273.645 314.701C273.518 314.72 273.402 314.72 273.277 314.72L126.339 314.003H126.33L124.421 313.994C122.812 313.994 121.31 313.568 119.993 312.803C119.849 312.725 119.712 312.637 119.577 312.55C116.243 310.39 114.267 306.068 115.11 301.544L145.765 137.942C146.511 133.99 149.292 130.86 152.886 129.93L265.477 102.55C268.733 101.708 271.93 102.812 274.149 105.089C274.594 105.544 275.001 106.047 275.36 106.6C276.426 108.198 277.084 110.165 277.143 112.326L277.21 114.786L282.617 304.15C282.626 304.403 282.626 304.654 282.617 304.897ZM291.792 102.395C291.714 99.9823 290.909 97.783 289.611 96.0004C286.986 92.3484 282.316 90.3432 277.52 91.4759L142.936 123.284C138.538 124.329 135.147 127.818 134.235 132.236L96.7405 315.108C95.7044 320.175 98.1263 325 102.196 327.412C103.93 328.44 105.955 329.03 108.135 329.03L286.927 328.642C293.458 328.624 298.69 323.208 298.476 316.687L291.792 102.395Z" fill="#EA7DAE"/>
<path d="M301.984 319.875C302.188 326.415 296.955 331.821 290.425 331.831L111.632 332.238C107.699 332.248 104.297 330.31 102.196 327.412C103.93 328.44 105.955 329.031 108.134 329.031L286.927 328.643C293.458 328.624 298.69 323.208 298.476 316.687L291.792 102.395C291.714 99.9824 290.909 97.7832 289.611 96.0005C292.877 97.9289 295.163 101.436 295.289 105.602L301.984 319.875Z" fill="#AAC3F3"/>
<path d="M277.21 114.786C277.153 112.646 276.503 110.707 275.447 109.128C275.098 108.576 274.692 108.082 274.255 107.637C272.327 106.503 270.041 106.105 267.706 106.706L156.481 133.757C152.925 134.676 150.193 137.758 149.457 141.663L119.171 303.288C118.482 306.959 119.684 310.496 121.971 312.821C123.269 313.578 124.741 314.003 126.331 314.003L124.422 313.994C122.813 313.994 121.311 313.568 119.994 312.802C119.849 312.725 119.712 312.637 119.577 312.55C116.244 310.39 114.267 306.068 115.111 301.544L145.765 137.942C146.512 133.99 149.292 130.86 152.887 129.93L265.477 102.55C268.733 101.708 271.93 102.812 274.149 105.089C274.594 105.544 275.001 106.047 275.36 106.599C276.426 108.198 277.085 110.165 277.143 112.326L277.21 114.786Z" fill="#1C211C"/>
<path d="M154.501 120.551C152.828 121.867 150.977 122.326 149.129 122.801L146.372 123.538C145.456 123.785 144.579 124.03 143.64 124.306C141.827 124.809 140.1 125.341 138.693 126.339C137.278 127.311 136.245 128.724 135.697 130.383C135.543 130.79 135.454 131.222 135.369 131.657C135.271 132.068 135.2 132.575 135.12 133.042L134.626 135.885C134.298 137.778 133.962 139.669 133.592 141.553C133.229 143.437 132.819 145.312 132.374 147.178C132.161 148.113 131.909 149.04 131.673 149.97C131.44 150.899 131.288 151.851 130.069 152.556C129.275 151.394 129.542 150.477 129.724 149.538C129.904 148.598 130.061 147.654 130.255 146.718C130.621 144.842 131.006 142.97 131.416 141.105L132.622 135.505L133.163 132.698C133.254 132.223 133.319 131.78 133.447 131.261C133.555 130.758 133.674 130.256 133.858 129.764C134.465 127.772 135.778 125.918 137.492 124.676C139.188 123.388 141.181 122.718 143.031 122.174C143.932 121.924 144.893 121.63 145.837 121.422C146.78 121.201 147.719 120.992 148.665 120.812C150.546 120.418 152.432 120.046 154.501 120.551Z" fill="#1C211C"/>
<path d="M126.544 169.752C126.594 174.125 125.78 178.324 124.968 182.521C124.18 186.724 123.338 190.916 122.463 195.1L117.189 220.204L112.169 245.361C111.312 249.549 110.483 253.743 109.572 257.921L108.2 264.186C107.745 266.275 107.374 268.381 105.934 270.268C105.353 267.967 105.84 265.885 106.244 263.785L107.448 257.486C108.256 253.286 109.145 249.105 110.005 244.917L115.289 219.815L120.319 194.661C121.163 190.469 122.038 186.285 122.967 182.111C123.872 177.932 124.776 173.753 126.544 169.752Z" fill="#1C211C"/>
<path d="M282.121 286.825C283.07 287.391 283.133 287.982 283.193 288.573C283.282 289.163 283.313 289.756 283.331 290.348C283.339 291.535 283.255 292.723 283.293 293.908C283.321 295.093 283.456 296.275 283.537 297.459C283.579 298.051 283.584 298.644 283.561 299.237C283.56 299.534 283.52 299.831 283.5 300.128C283.483 300.426 283.551 300.72 282.527 301.046C281.488 300.778 281.538 300.481 281.505 300.186C281.468 299.89 281.411 299.595 281.394 299.299C281.336 298.708 281.308 298.116 281.316 297.522C281.328 296.336 281.396 295.149 281.356 293.962C281.327 292.778 281.175 291.596 281.116 290.412C281.1 289.82 281.097 289.227 281.151 288.631C281.178 288.038 281.208 287.443 282.121 286.825Z" fill="#1C211C"/>
<path d="M282.01 308.007C282.257 308.943 282.134 309.994 281.746 310.938C281.36 311.891 280.686 312.725 279.901 313.388C278.296 314.717 276.305 315.326 274.391 315.665C273.424 315.872 272.457 315.909 271.492 316L268.679 316.096C266.813 316.146 264.947 316.152 263.084 316.164C259.356 316.2 255.632 316.168 251.908 316.141L240.736 316.083L218.396 316.155C214.673 316.141 210.949 316.153 207.226 316.082L201.642 315.965C199.78 315.93 197.918 315.978 196.064 314.934C197.931 313.915 199.791 313.984 201.653 313.969L207.238 313.914C210.961 313.881 214.682 313.927 218.405 313.945L229.572 314.071L240.739 314.145L251.905 314.088L263.067 313.975L268.64 313.915L271.411 313.871C272.297 313.796 273.2 313.811 274.063 313.648C275.807 313.407 277.475 312.891 278.904 312.035C280.323 311.177 281.501 309.864 282.01 308.007Z" fill="#1C211C"/>
<path d="M156.165 143.862L269.667 116.814" stroke="white" stroke-width="1.13748" stroke-miterlimit="10"/>
<path d="M155.036 151.26L269.666 126.057" stroke="white" stroke-width="1.13748" stroke-miterlimit="10"/>
<path d="M153.908 158.658L269.666 135.3" stroke="white" stroke-width="1.13748" stroke-miterlimit="10"/>
<path d="M152.78 166.055L269.666 144.542" stroke="white" stroke-width="1.13748" stroke-miterlimit="10"/>
<path d="M151.653 173.453L269.666 153.784" stroke="white" stroke-width="1.13748" stroke-miterlimit="10"/>
<path d="M150.525 180.851L269.666 163.026" stroke="white" stroke-width="1.13748" stroke-miterlimit="10"/>
<path d="M149.396 188.248L269.666 172.268" stroke="white" stroke-width="1.13748" stroke-miterlimit="10"/>
<path d="M148.269 195.646L269.666 181.51" stroke="white" stroke-width="1.13748" stroke-miterlimit="10"/>
<path d="M147.141 203.044L269.666 190.754" stroke="white" stroke-width="1.13748" stroke-miterlimit="10"/>
<path d="M146.012 210.441L269.666 199.996" stroke="white" stroke-width="1.13748" stroke-miterlimit="10"/>
<path d="M143.767 219.342L269.666 211.297" stroke="white" stroke-width="1.13748" stroke-miterlimit="10"/>
<path d="M143.767 227.42L269.666 223.397" stroke="white" stroke-width="1.13748" stroke-miterlimit="10"/>
<path d="M142.609 236.105L269.666 236.517" stroke="white" stroke-width="1.13748" stroke-miterlimit="10"/>
<path d="M81.5739 129.639C75.1542 133.303 68.3361 133.687 65.5804 130.743C65.323 130.481 65.117 130.187 64.9371 129.877C62.7353 126.02 66.6151 119.664 73.6054 115.685C80.4134 111.793 87.673 111.598 90.065 115.163C90.1285 115.254 90.1937 115.356 90.2429 115.448C92.4448 119.304 88.5513 125.662 81.5739 129.639Z" fill="#1C211C"/>
<path d="M132.51 201.871C127.695 204.765 122.979 205.274 120.007 203.499C119.371 203.137 118.805 202.645 118.353 202.061L65.5806 130.743C68.3362 133.687 75.1543 133.303 81.5741 129.639C88.5515 125.662 92.445 119.304 90.2431 115.448C90.2109 115.396 90.1769 115.331 90.1447 115.279C92.3181 118.552 138.718 188.23 138.868 188.502C139.081 188.865 139.241 189.258 139.365 189.684C140.362 193.084 138.563 198.228 132.51 201.871Z" fill="#3278FB"/>
<path d="M173.642 256.394C173.642 256.394 175.06 259.831 175.234 260.33C175.432 260.906 174.683 261.633 173.859 260.729C173.034 259.826 171.24 258.216 171.24 258.216L173.642 256.394Z" fill="#1C211C"/>
<path d="M173.065 258.371C171.912 259.109 170.629 258.609 170.629 258.609L158.909 251.532C158.909 251.532 156.257 250.488 153.213 246.737C155.115 248.629 159.627 248.129 163.736 245.444C167.977 242.683 170.27 238.605 169.086 236.106C169.652 237.116 171.217 240.204 171.934 244.531C172.814 249.847 174.119 256.152 174.119 256.152C174.119 256.152 174.228 257.653 173.065 258.371Z" fill="#4585FC"/>
<path d="M163.736 245.444C159.627 248.129 155.708 249.331 153.806 247.44C153.297 247.615 152.131 247.042 151.666 246.48C151.666 246.48 126.042 217.657 118.554 206.078C117.447 204.366 118.548 202.295 118.548 202.295C121.515 204.068 127.697 204.762 132.514 201.871C138.557 198.228 139.868 191.905 138.868 188.502C138.868 188.502 140.628 188.09 141.956 189.314C144.475 191.637 168.936 234.811 168.936 234.811C168.936 234.811 169.718 235.818 169.396 236.688C169.407 236.699 169.407 236.699 169.407 236.699C169.792 239.459 167.977 242.683 163.736 245.444Z" fill="#3278FB"/>
<path d="M97.1758 181.556C96.1942 181.992 93.0777 182.042 90.8999 182.252C89.3166 182.405 87.9289 181.319 87.1578 180.411C86.3277 179.439 69.0875 157.348 68.3733 155.751C67.6738 154.166 67.3704 153.028 67.4874 151.828C67.6529 150.122 71.3899 138.595 71.3899 138.595C71.3899 138.595 77.7237 140.128 84.3448 135.721C84.3448 135.721 73.7677 149.236 73.9339 152.661C74.0847 155.788 88.9632 175.97 92.8318 180.268C92.8318 180.268 92.8336 180.281 92.8461 180.28C93.2154 180.695 93.4854 180.955 93.6293 181.038C94.8719 181.737 96.2129 181.908 97.1758 181.556Z" fill="white"/>
<path d="M99.442 172.126C99.2909 172.386 96.844 176.561 96.4095 176.887C95.9527 177.246 95.3868 177.115 94.8325 176.55C94.811 176.517 94.7234 176.431 94.6367 176.267C94.6367 176.267 94.6367 176.257 94.626 176.257L96.6813 172.778C98.5176 172.625 99.3445 172.18 99.442 172.126Z" fill="#1C211C"/>
<path d="M101.42 175.43C101.42 175.43 98.9197 179.844 98.1267 180.909C97.9631 181.116 97.7789 181.268 97.5393 181.399C97.5393 181.399 97.5286 181.399 97.5063 181.42C97.4526 181.442 97.3328 181.486 97.1808 181.551C96.2126 181.909 94.8761 181.736 93.6263 181.04C93.4842 180.953 93.2133 180.692 92.8432 180.279C92.8324 180.279 92.8324 180.269 92.8324 180.269C88.9621 175.974 74.0895 155.785 73.9369 152.665C73.7634 149.241 84.3409 135.716 84.3409 135.716L89.0704 143.131L81.5796 152.349C81.5796 152.349 80.7862 153.143 81.384 154.687C81.9382 156.133 92.8861 173.755 94.6258 176.257C94.6365 176.257 94.6365 176.267 94.6365 176.267C94.7232 176.431 94.8108 176.517 94.8323 176.55C95.3866 177.115 95.9525 177.246 96.4093 176.887C96.8438 176.561 99.2907 172.386 99.4418 172.125C99.4525 172.114 99.4525 172.114 99.4525 172.114L101.42 175.43Z" fill="#1C211C"/>
<path d="M72.5877 116.229C68.5727 118.521 64.3042 118.572 63.0453 116.363C62.5372 115.491 62.5924 114.376 63.0795 113.233C63.1138 113.454 63.1959 113.658 63.2996 113.835C64.3176 115.605 67.7266 115.564 70.9398 113.734C74.1516 111.905 75.9388 108.991 74.9338 107.219C74.755 106.913 74.5053 106.65 74.1882 106.469C75.7499 106.517 76.9844 107.046 77.5715 108.086C78.8304 110.295 76.6037 113.948 72.5877 116.229Z" fill="#1C211C"/>
<path d="M70.9396 113.734C67.7263 115.564 64.3173 115.605 63.2993 113.835C63.1956 113.658 63.1136 113.454 63.0793 113.233L63.0783 113.221C62.6963 111.452 64.4238 108.955 67.2937 107.32C69.9258 105.808 72.7254 105.514 74.188 106.469C74.5051 106.65 74.7548 106.913 74.9336 107.219C75.9386 108.991 74.1513 111.905 70.9396 113.734Z" fill="white"/>
<path d="M79.709 126.393C75.0679 129.034 70.1159 129.099 68.6474 126.538L63.0449 116.363C64.3039 118.572 68.5723 118.521 72.5873 116.229C76.6033 113.947 78.83 110.295 77.5711 108.086L84.6389 116.013L84.6522 116.024L85.477 116.954C86.9325 119.517 84.3501 123.74 79.709 126.393Z" fill="#3278FB"/>
<path d="M137.899 196.085C138.424 197.327 137.944 198.165 137.437 198.881C136.959 199.641 136.353 200.311 135.712 200.943C134.383 202.168 132.789 203.085 131.135 203.796C129.48 204.494 127.705 205.051 125.885 205.116C124.974 205.23 124.077 205.072 123.185 204.962C122.732 204.933 122.318 204.735 121.888 204.628C121.679 204.546 121.451 204.546 121.269 204.36C121.086 204.178 120.94 203.858 120.886 203.268C121.24 202.765 121.503 202.533 121.729 202.438C121.955 202.339 122.135 202.428 122.335 202.434C122.726 202.468 123.114 202.551 123.501 202.549C124.274 202.554 125.039 202.677 125.8 202.624C127.326 202.673 128.862 202.405 130.271 201.8C131.688 201.203 132.91 200.22 134 199.14C134.549 198.598 135.088 198.049 135.624 197.479C135.901 197.199 136.119 196.881 136.466 196.641C136.822 196.401 137.231 196.207 137.899 196.085Z" fill="#D69C3F"/>
<path d="M162.515 246.201C162.062 246.952 161.471 247.554 160.802 248.064C160.468 248.32 160.093 248.52 159.724 248.733C159.332 248.903 158.943 249.087 158.516 249.197C157.68 249.449 156.759 249.568 155.798 249.501C155.318 249.468 154.825 249.365 154.343 249.178C154.099 249.087 153.861 248.969 153.626 248.833C153.508 248.754 153.392 248.687 153.274 248.593C153.147 248.492 153.066 248.438 152.877 248.235L154.098 248.625C153.274 248.821 152.622 248.576 152.163 248.347C151.691 248.104 151.317 247.822 150.984 247.534C150.654 247.243 150.354 246.942 150.076 246.632C149.797 246.312 149.556 246.013 149.29 245.641L149.354 245.724L143.465 238.566C141.51 236.172 139.457 233.862 137.446 231.516C135.413 229.188 133.359 226.879 131.385 224.502C130.394 223.316 129.416 222.121 128.458 220.908L127.024 219.085C126.556 218.469 126.216 217.744 126.36 216.612C127.5 216.659 128.158 217.114 128.687 217.679L130.245 219.396C131.283 220.542 132.298 221.707 133.303 222.881C135.317 225.224 137.253 227.633 139.209 230.026C141.187 232.399 143.124 234.808 145.158 237.134L151.237 244.134L151.253 244.153L151.301 244.217C151.477 244.452 151.71 244.735 151.93 244.976C152.154 245.225 152.384 245.458 152.616 245.664C152.847 245.869 153.083 246.034 153.277 246.136C153.477 246.245 153.592 246.243 153.511 246.254L154.733 246.646C154.678 246.586 154.747 246.658 154.773 246.678C154.806 246.709 154.862 246.741 154.903 246.775C155.006 246.837 155.114 246.9 155.238 246.95C155.483 247.054 155.759 247.131 156.057 247.176C156.653 247.258 157.32 247.241 157.996 247.083C158.336 247.031 158.679 246.923 159.034 246.866C159.385 246.768 159.747 246.697 160.119 246.613C160.865 246.451 161.627 246.262 162.515 246.201Z" fill="#D69C3F"/>
<path d="M98.4893 127.817C100.173 129.41 101.452 131.271 102.717 133.144C103.993 135.009 105.274 136.87 106.512 138.76L113.965 150.083L121.538 161.325C122.791 163.206 124.061 165.073 125.277 166.979L127.119 169.823C127.737 170.77 128.387 171.694 128.534 172.952C127.428 172.332 126.827 171.374 126.193 170.439L124.28 167.642C122.992 165.785 121.759 163.892 120.508 162.012L113.059 150.686L105.489 139.441C104.223 137.57 103.001 135.669 101.774 133.773C100.534 131.883 99.3099 129.983 98.4893 127.817Z" fill="#1C211C"/>
<path d="M76.6217 138.677C76.2609 139.023 75.8209 139.22 75.3756 139.365C74.9269 139.497 74.46 139.565 73.9917 139.565C73.0562 139.588 72.1105 139.455 71.2032 139.184L71.9823 138.775C71.3939 140.738 70.7439 142.681 70.1328 144.637C69.507 146.587 68.9476 148.559 68.3783 150.526V150.528L68.3413 150.618C68.152 151.094 68.0613 151.781 68.0763 152.389C68.0881 153.018 68.2184 153.646 68.4116 154.259C68.5921 154.877 68.8861 155.464 69.1927 156.049C69.3505 156.338 69.5465 156.61 69.7113 156.9C69.8852 157.188 69.9987 157.52 69.9341 158.035C69.4337 158.005 69.1089 157.793 68.8498 157.535C68.6298 157.244 68.4087 156.952 68.2079 156.645C67.8116 156.024 67.4641 155.363 67.2232 154.648C66.9898 153.933 66.8477 153.18 66.8348 152.411C66.8313 151.63 66.9176 150.9 67.2762 150.088L67.2395 150.179C67.8646 148.229 68.4985 146.28 69.0663 144.312C69.6491 142.348 70.1932 140.372 70.7992 138.415L70.9842 137.815L71.5779 138.006C72.3595 138.256 73.1762 138.414 74.0095 138.459C74.8476 138.499 75.6638 138.512 76.6217 138.677Z" fill="#1C211C"/>
<path d="M73.2762 111.982C73.7018 113.037 73.3474 113.406 73.0243 113.733C72.7041 114.078 72.3375 114.376 71.9341 114.622C71.1204 115.105 70.2114 115.415 69.3097 115.734C68.3972 116.032 67.4326 116.312 66.4042 116.352C65.8899 116.359 65.3722 116.3 64.8834 116.123C64.6347 116.054 64.398 115.955 64.1797 115.816C64.0759 115.734 63.9381 115.738 63.8784 115.551C63.8154 115.378 63.8235 115.047 63.9485 114.527C64.2733 114.082 64.4811 113.828 64.619 113.731C64.7605 113.62 64.8222 113.7 64.919 113.694C65.0946 113.729 65.2703 113.742 65.4449 113.747C65.6192 113.755 65.7844 113.797 65.9544 113.81C66.1266 113.814 66.296 113.833 66.4664 113.859C67.1505 113.917 67.8978 113.92 68.613 113.673C69.3296 113.428 69.9627 112.964 70.5942 112.526C70.9144 112.314 71.2479 112.113 71.5964 111.925C71.9481 111.723 72.2442 111.533 73.2762 111.982Z" fill="#D69C3F"/>
<path d="M84.677 156.549C85.5954 156.916 86.1165 157.577 86.6379 158.237C87.1705 158.889 87.6774 159.56 88.172 160.241L91.1158 164.34L94.1777 168.352C94.6784 169.028 95.1924 169.693 95.6689 170.387C95.9148 170.729 96.1427 171.082 96.3805 171.431C96.6183 171.777 96.8964 172.095 96.6809 172.778C95.9648 172.783 95.7422 172.426 95.4803 172.096C95.2174 171.768 94.9448 171.445 94.6909 171.111C94.167 170.452 93.6807 169.765 93.1809 169.089L90.2405 164.988L87.1833 160.973C86.6773 160.301 86.1838 159.619 85.7159 158.919C85.2375 158.227 84.758 157.535 84.677 156.549Z" fill="#1C211C"/>
<path d="M97.7131 172.647C97.9599 172.286 98.187 172.021 98.4033 171.792C98.6196 171.567 98.8199 171.379 98.9916 171.224L99.5128 170.752L100.305 171.607C100.688 172.02 100.96 172.5 101.126 173.043C101.283 173.591 101.351 174.192 101.142 174.96C100.366 174.783 99.8668 174.44 99.4564 174.044C99.0568 173.64 98.7618 173.176 98.5776 172.643L99.8918 173.027C99.5208 173.137 99.1525 173.161 98.7895 173.105C98.4266 173.045 98.0627 172.917 97.7131 172.647Z" fill="#D69C3F"/>
<path d="M248.931 127.797C248.869 128.047 248.717 128.37 248.476 128.753C245.901 132.992 233.814 144.748 233.814 144.748C233.814 144.748 231.892 146.92 227.922 146.008C228.343 145.722 228.709 145.356 229.022 144.927C230.792 142.495 228.799 140.322 226.018 138.311C223.238 136.29 220.726 135.191 218.956 137.631C218.625 138.078 218.392 138.57 218.232 139.08C215.979 135.495 217.49 132.911 217.49 132.911C217.49 132.911 224.892 117.794 228.128 114.012C228.432 113.663 228.691 113.413 228.906 113.279C230.783 112.099 234.529 111.938 238.311 113.288C239.75 113.806 241.207 114.539 242.557 115.523C243.925 116.515 245.078 117.668 246.018 118.893C248.458 122.058 249.459 125.652 248.931 127.797Z" fill="white"/>
<path d="M225.507 118.156C225.794 117.457 226.39 117.008 226.994 116.726C227.611 116.442 228.273 116.365 228.919 116.289C230.219 116.156 231.516 116.26 232.771 116.514C235.282 117.058 237.628 118.169 239.681 119.674C241.751 121.151 243.517 123.056 244.83 125.257C245.481 126.362 245.989 127.561 246.295 128.835C246.453 129.472 246.536 130.132 246.564 130.803C246.56 131.139 246.604 131.485 246.47 131.823C246.403 131.993 246.289 132.156 246.15 132.304C246.078 132.378 245.988 132.449 245.876 132.51C245.77 132.571 245.676 132.631 245.533 132.674C245.144 132.272 244.945 132.001 244.849 131.734C244.79 131.6 244.773 131.471 244.771 131.341L244.727 130.945C244.657 130.413 244.511 129.884 244.363 129.353C244.039 128.294 243.583 127.262 243.045 126.266C242.508 125.274 241.864 124.319 241.132 123.448C240.386 122.586 239.547 121.804 238.629 121.12C236.773 119.792 234.591 118.929 232.369 118.519C231.26 118.292 230.135 118.18 229.022 118.172C228.464 118.169 227.924 118.245 227.366 118.243C226.798 118.243 226.248 118.218 225.507 118.156Z" fill="#1C211C"/>
<path d="M222.387 123.397C222.779 122.809 223.339 122.49 223.904 122.288C224.477 122.091 225.072 122.077 225.656 122.05C226.832 122.011 227.998 122.167 229.129 122.436C231.383 123.024 233.484 124.069 235.351 125.435C237.232 126.771 238.873 128.461 240.149 130.401C240.782 131.378 241.296 132.438 241.659 133.558C241.846 134.116 241.97 134.697 242.067 135.285C242.101 135.58 242.186 135.874 242.109 136.186C242.03 136.497 241.82 136.82 241.361 137.103C240.399 136.593 240.392 136.165 240.265 135.662C240.135 135.177 239.95 134.705 239.773 134.23C239.396 133.286 238.93 132.371 238.408 131.485C237.876 130.606 237.281 129.75 236.596 128.976C235.904 128.205 235.135 127.505 234.301 126.884C232.614 125.68 230.65 124.876 228.649 124.423C227.647 124.184 226.632 124.025 225.614 123.935C225.104 123.888 224.601 123.914 224.084 123.84C223.561 123.764 223.039 123.651 222.387 123.397Z" fill="#1C211C"/>
<path d="M219.459 128.871C220.332 127.872 221.468 127.821 222.499 127.877C223.551 127.906 224.59 128.096 225.595 128.38C227.604 128.988 229.464 129.97 231.145 131.201C232.836 132.401 234.349 133.886 235.563 135.583C236.168 136.437 236.677 137.362 237.063 138.344C237.266 138.83 237.412 139.34 237.546 139.852C237.681 140.352 237.874 140.899 237.024 141.564C236.002 141.256 235.952 140.845 235.79 140.405C235.626 139.975 235.421 139.562 235.23 139.145C234.83 138.314 234.365 137.514 233.867 136.733C232.87 135.16 231.605 133.759 230.095 132.65C228.578 131.568 226.825 130.816 225.038 130.347C224.145 130.094 223.239 129.904 222.325 129.754C221.393 129.634 220.54 129.583 219.459 128.871Z" fill="#1C211C"/>
<path d="M229.022 144.926C228.709 145.355 228.343 145.722 227.923 146.008C225.983 147.412 223.077 147.349 220.788 145.695C218.518 144.05 217.552 141.341 218.232 139.08C218.393 138.57 218.625 138.078 218.956 137.631C220.726 135.191 223.238 136.29 226.018 138.311C228.799 140.322 230.792 142.495 229.022 144.926Z" fill="#1C211C"/>
<path d="M304.601 106.377C296.779 117.159 285.05 123.426 272.766 124.65C272.766 124.65 272.73 124.65 272.659 124.658C272.301 124.668 271.014 124.73 269.226 124.865H269.181C264.068 125.231 254.913 126.125 251.149 128.021C250.301 128.45 249.397 128.681 248.477 128.753C248.718 128.369 248.87 128.047 248.932 127.797C249.46 125.652 248.458 122.058 246.019 118.893C245.079 117.668 243.926 116.515 242.558 115.523C241.208 114.539 239.751 113.806 238.311 113.288C234.53 111.938 230.784 112.099 228.906 113.279C228.692 113.413 228.433 113.663 228.129 114.012C227.915 113.108 227.852 112.178 227.995 111.231C228.665 106.878 226.537 97.3476 225.366 92.6272C225.366 92.6183 225.366 92.6093 225.357 92.6004C225.053 91.3756 224.822 90.4727 224.714 90.0793C224.714 90.0704 224.714 90.0704 224.714 90.0704C221.933 77.9209 224.213 64.6897 232.107 53.8089C246.617 33.7931 274.617 29.3311 294.633 43.8416C314.659 58.3602 319.12 86.3603 304.601 106.377Z" fill="#EFE576"/>
<path d="M224.713 90.0706C222.737 85.1053 222.34 79.5742 223.026 74.2566C223.349 71.5898 223.901 68.9481 224.674 66.3689C225.447 63.7888 226.535 61.3106 227.768 58.921C229.016 56.5393 230.446 54.2391 232.159 52.165L233.432 50.6005C233.859 50.0802 234.263 49.542 234.759 49.0843C235.713 48.1367 236.648 47.1693 237.619 46.2405C241.62 42.6421 246.265 39.7813 251.249 37.794C261.191 33.7593 272.571 33.273 282.823 36.6425C284.088 37.1002 285.334 37.6161 286.589 38.1024C287.228 38.3223 287.813 38.6629 288.414 38.9633L290.211 39.8868C291.438 40.451 292.523 41.26 293.655 41.9877C294.214 42.3632 294.78 42.7253 295.331 43.1115C295.87 43.5138 296.402 43.925 296.924 44.3488C299.008 46.05 300.953 47.9203 302.706 49.9577C304.461 51.9746 306.125 54.1667 306.681 56.9229C304.509 55.1751 303.048 53.1055 301.332 51.1646C299.615 49.2407 297.718 47.4813 295.694 45.8891C295.188 45.4922 294.672 45.1078 294.149 44.7314C293.616 44.372 293.065 44.0368 292.525 43.6872C291.425 43.0221 290.401 42.2273 289.227 41.6927L287.513 40.8068C286.939 40.518 286.382 40.189 285.772 39.9807C284.573 39.5149 283.386 39.0187 282.18 38.5762C277.3 36.9393 272.129 36.183 266.98 36.3251C261.831 36.4798 256.708 37.5419 251.918 39.4532C247.144 41.3959 242.694 44.1539 238.894 47.6423C237.974 48.5434 237.09 49.4812 236.185 50.3976C235.714 50.8392 235.334 51.3622 234.932 51.8646L233.729 53.3755C232.12 55.3843 230.74 57.5746 229.558 59.8588C227.183 64.4209 225.575 69.3844 224.873 74.4927C224.18 79.6233 224.413 84.7612 224.713 90.0706Z" fill="#D69C3F"/>
<path d="M244.114 116.815C243.007 116.962 242.465 116.594 241.868 116.223C241.267 115.873 240.675 115.52 240.072 115.191C238.884 114.508 237.643 113.89 236.32 113.575C234.997 113.24 233.634 113.308 232.349 113.528C232.03 113.603 231.71 113.665 231.385 113.718C231.077 113.828 230.761 113.916 230.444 114.009L229.964 114.143L229.503 114.336C229.189 114.472 228.944 114.659 228.129 114.012C227.958 113.03 228.358 112.88 228.69 112.683C229.022 112.469 229.359 112.256 229.74 112.136C230.112 111.992 230.481 111.839 230.86 111.718C231.251 111.637 231.645 111.563 232.039 111.504C233.624 111.322 235.22 111.467 236.724 111.832C238.228 112.198 239.703 112.681 241.061 113.401C241.734 113.77 242.376 114.188 242.958 114.684C243.551 115.148 244.154 115.679 244.114 116.815Z" fill="#D69C3F"/>
<path d="M247.578 121.318C250.459 117.869 253.954 115.276 257.452 112.682C260.926 110.06 264.437 107.487 267.961 104.936C271.468 102.364 275.013 99.8321 278.49 97.2485L279.778 96.274C280.135 95.9808 280.491 95.6589 280.822 95.2942C281.486 94.57 282.079 93.7484 282.555 92.8866C283.511 91.2059 283.975 89.0925 282.967 88.2056C282.747 87.9866 282.334 87.7059 281.94 87.5432C281.55 87.3474 281.117 87.2356 280.679 87.1561C279.797 87.0032 278.849 87.0658 277.918 87.2947C276.045 87.7515 274.269 88.8154 272.758 90.1403C271.249 91.5242 269.717 93.1593 268.207 94.6934L263.669 99.378C260.629 102.492 257.623 105.64 254.549 108.722L249.935 113.343C248.397 114.884 246.947 116.508 244.539 117.21C245.152 114.778 246.726 113.27 248.213 111.679C249.702 110.09 251.174 108.484 252.681 106.913C255.666 103.741 258.727 100.641 261.773 97.5265C263.293 95.9656 264.838 94.4288 266.384 92.8902C267.958 91.3516 269.426 89.8256 271.153 88.2933C272.922 86.7824 274.989 85.5397 277.367 84.9747C279.712 84.4151 282.524 84.6439 284.607 86.5553C284.892 86.786 285.082 87.1391 285.305 87.4377C285.465 87.7712 285.64 88.1225 285.724 88.4729C285.797 88.8252 285.888 89.1873 285.878 89.527L285.891 90.0428L285.839 90.5345C285.676 91.838 285.21 92.976 284.652 94.0274C284.084 95.076 283.404 96.038 282.604 96.9257C282.208 97.37 281.762 97.7884 281.281 98.1872L279.982 99.2072C276.516 101.88 273.031 104.488 269.511 107.057C266.003 109.642 262.467 112.185 258.888 114.668C255.329 117.178 251.764 119.683 247.578 121.318Z" fill="#D69C3F"/>
<path d="M246.019 118.893C248.037 114.049 250.869 109.79 253.668 105.5C256.434 101.19 259.21 96.8909 261.925 92.5622C264.602 88.22 267.299 83.8591 269.549 79.364C270.643 77.1156 271.482 74.8538 271.516 72.5383C271.584 71.9555 271.446 71.4038 271.406 70.837C271.398 70.5492 271.271 70.2971 271.212 70.0235C271.123 69.7633 271.101 69.4701 270.961 69.2332C270.564 68.2015 269.885 67.3388 269.079 66.6746C267.395 65.3979 265.044 65.423 263.226 66.6719C261.354 67.8779 260.134 69.9985 258.921 72.1861C256.622 76.6642 254.712 81.4166 252.813 86.1513C250.926 90.8993 249.173 95.7072 247.375 100.5L244.714 107.705C243.84 110.113 243.092 112.556 241.101 114.595C240.728 111.764 241.644 109.356 242.453 106.919C243.264 104.481 244.064 102.039 244.928 99.6176C246.614 94.7614 248.445 89.9543 250.351 85.1697C252.285 80.3921 254.317 75.6566 256.763 71.0337L257.762 69.3155C257.936 69.0303 258.081 68.7424 258.277 68.459L258.891 67.616L259.507 66.7747C259.747 66.5146 260.009 66.2687 260.259 66.0166C260.526 65.7761 260.742 65.4927 261.051 65.2916L261.945 64.6604C263.185 63.9059 264.648 63.3141 266.203 63.3713C267.729 63.3883 269.282 63.8737 270.481 64.8177C271.667 65.7564 272.601 66.9813 273.144 68.3455C273.322 68.6718 273.37 69.0356 273.487 69.3789C273.57 69.7303 273.72 70.0754 273.743 70.4321C273.813 71.141 273.967 71.8571 273.903 72.5598C273.889 75.4072 272.866 78.0615 271.771 80.4234C269.498 85.141 266.868 89.5672 264.156 93.9496C261.451 98.3311 258.628 102.629 255.707 106.859C252.813 111.103 249.873 115.325 246.019 118.893Z" fill="#D69C3F"/>
<path d="M216.38 379.937C264.824 403.436 329.383 390.27 357.221 347.802C390.458 297.101 359.349 242.56 359.349 242.56" stroke="#1C211C" stroke-width="6.8884" stroke-miterlimit="10" stroke-linecap="round" stroke-linejoin="round"/>
<path d="M130.951 124.94C153.049 136.072 164.507 164.588 159.06 200.48C152.12 246.213 150.28 305.667 175.266 343.944C185.876 360.197 200.233 372.105 216.38 379.938" stroke="url(#paint0_linear_273_433)" stroke-width="6.8884" stroke-miterlimit="10" stroke-linecap="round" stroke-linejoin="round"/>
<path d="M388.049 188.267C386.628 188.929 384.848 191.083 380.03 191.083C375.577 191.074 372.44 184.808 370.947 179.524C370.947 179.524 369.176 174.938 367.388 169.699C367.388 169.699 367.388 169.699 367.388 169.69C367.246 169.502 365.108 166.597 364.438 164.997C364.438 164.997 364.885 164.415 365.458 163.691C366.129 162.824 366.977 161.76 367.415 161.251C368.221 160.33 370.553 158.837 371.036 158.721C371.501 158.595 374.666 159.954 374.854 160.035L373.853 157.433C373.853 157.433 374.818 156.745 376.105 156.468C377.053 156.253 377.983 156.459 378.501 156.638C378.689 156.7 378.822 156.754 378.886 156.79C379.082 156.888 381.559 161.358 382.301 162.708C382.354 162.797 382.39 162.869 382.426 162.931C382.48 163.03 382.506 163.083 382.506 163.083C387.973 171.071 388.139 173.73 388.139 173.73C388.139 173.73 389.837 179.426 390.668 181.205C391.5 182.984 389.48 187.615 388.049 188.267Z" fill="#4585FC"/>
<path d="M378.502 156.638C377.983 156.459 377.054 156.253 376.105 156.468C374.819 156.745 373.853 157.433 373.853 157.433L374.854 160.035C374.667 159.954 371.502 158.595 371.036 158.721C370.553 158.837 368.221 160.33 367.415 161.251C366.977 161.76 366.129 162.824 365.458 163.691C364.386 160.115 362.928 156.521 363.045 155.019C363.456 149.646 371.046 147.993 374.783 151.873C375.963 153.097 377.232 154.76 378.502 156.638Z" fill="#913A3A"/>
<path d="M363.725 157.451L361.237 155.391C361.237 155.391 360.658 155.359 360.068 155.207C357.094 156.2 353.944 155.717 353.944 155.717C353.944 155.717 348.57 155.306 348.455 155.243C348.339 155.18 345.039 154.027 344.682 153.696C344.324 153.375 344.119 151.917 345.629 151.595C347.15 151.265 348.57 152.096 348.57 152.096L351.285 151.399L351.592 150.916C350.957 150.415 350.484 149.951 350.145 149.512H350.135L348.021 148.47L344.466 148.483C344.466 148.483 342.787 149.647 341.49 149.557C340.203 149.468 338.772 148.583 339.533 147.823C340.293 147.063 343.002 145.641 343.404 145.507C343.645 145.427 345.103 145.221 346.238 145.069H346.247C346.354 144.953 348.204 143.111 348.839 142.593C349.098 142.378 350.02 142.262 351.029 142.191C351.217 142.065 353.667 140.474 354.141 140.474C354.338 140.474 355.16 140.572 356.09 140.689H356.098C356.224 140.617 357.386 139.982 358.101 139.938C358.861 139.893 364.037 141.413 364.037 141.413C366.255 141.86 373.906 150.898 374.783 151.873C375.659 152.847 369.436 159.999 363.725 157.451Z" fill="#913A3A"/>
<path d="M349.037 165.42L374.188 171.23C374.188 171.23 382.679 172.958 385.145 176.693C388.319 181.502 386.534 189.251 381.105 190.854C377.686 191.864 356.237 192.72 356.237 192.72C356.237 192.72 349.848 190.081 347.1 184.23C343.518 176.604 345.062 165.742 349.037 165.42Z" fill="#4585FC"/>
<path d="M356.237 192.719C357.061 191.808 357.936 191.711 358.81 191.618C359.684 191.497 360.561 191.431 361.438 191.376C363.194 191.293 364.956 191.293 366.709 191.181C367.587 191.126 368.46 191.014 369.338 190.964C370.214 190.9 371.099 190.961 371.982 190.985C373.747 191.055 375.516 191.181 377.292 191.427C375.559 191.889 373.82 192.229 372.075 192.515C371.203 192.646 370.332 192.815 369.455 192.858C368.577 192.917 367.697 192.912 366.82 192.966C365.065 193.069 363.317 193.285 361.564 193.418C360.686 193.47 359.808 193.511 358.926 193.499C358.047 193.513 357.167 193.524 356.237 192.719Z" fill="#702303"/>
<path d="M377.292 172.065C376.547 171.988 375.816 171.854 375.078 171.751C374.344 171.626 373.612 171.496 372.884 171.35C371.426 171.066 369.979 170.734 368.536 170.387L366.224 169.832L368.574 169.512C370.031 169.315 371.481 169.196 372.946 169.197C373.676 169.197 374.408 169.225 375.137 169.299C375.864 169.394 376.592 169.487 377.292 169.699C375.837 169.65 374.408 169.768 372.977 169.888C371.551 170.027 370.117 170.186 368.709 170.395L368.747 169.52C370.188 169.877 371.625 170.248 373.05 170.668C373.764 170.874 374.473 171.096 375.182 171.323C375.885 171.571 376.596 171.789 377.292 172.065Z" fill="#702303"/>
<path d="M346.246 145.07C346.423 144.783 346.715 144.686 346.955 144.594C347.207 144.505 347.462 144.473 347.715 144.457C348.224 144.454 348.731 144.527 349.232 144.882C348.731 145.236 348.238 145.321 347.745 145.35C347.498 145.349 347.254 145.341 347.005 145.288C346.754 145.25 346.522 145.141 346.246 145.07Z" fill="#1C211C"/>
<path d="M351.028 142.191C351.574 141.838 352.119 141.759 352.664 141.745C353.21 141.756 353.755 141.836 354.301 142.191C353.755 142.545 353.21 142.624 352.664 142.638C352.119 142.622 351.574 142.543 351.028 142.191Z" fill="#1C211C"/>
<path d="M350.604 151.574C350.802 151.404 351.011 151.276 351.222 151.159L351.074 151.265C351.133 151.075 351.209 150.898 351.283 150.72L351.249 150.788C351.316 150.502 351.393 150.227 351.499 149.959C351.592 149.687 351.727 149.43 351.861 149.174C352.003 148.922 352.166 148.678 352.359 148.45C352.552 148.224 352.773 148.005 353.054 147.859C352.936 148.461 352.811 148.991 352.622 149.519C352.432 150.041 352.211 150.556 351.936 151.044L351.901 151.114C351.771 151.257 351.641 151.401 351.494 151.533L351.375 151.64H351.346C351.104 151.64 350.86 151.627 350.604 151.574Z" fill="#1C211C"/>
<path d="M362.023 168.42C361.206 169.105 360.582 168.998 359.959 168.887C359.33 168.801 358.712 168.664 358.099 168.516C356.877 168.193 355.676 167.788 354.448 167.493C353.221 167.188 351.971 166.98 350.734 166.721C350.115 166.595 349.503 166.435 348.899 166.249C348.594 166.165 348.298 166.046 347.998 165.947C347.695 165.85 347.375 165.827 347.295 164.828C347.827 163.978 348.121 164.106 348.433 164.157C348.747 164.208 349.064 164.239 349.373 164.305C349.995 164.419 350.612 164.557 351.22 164.731C352.437 165.071 353.642 165.462 354.871 165.755C356.097 166.059 357.351 166.253 358.583 166.528C359.197 166.679 359.807 166.841 360.405 167.055C361.01 167.244 361.613 167.435 362.023 168.42Z" fill="#702303"/>
<path d="M295.645 363.018C291.318 370.438 285.695 379.968 284.944 380.558C283.711 381.524 278.812 385.403 275.102 385.162C271.383 384.921 268.656 381.765 268.656 379.583C268.656 378.707 271.167 369.955 274.172 359.835C274.172 359.835 277.769 357.854 285.481 358.744C293.848 359.71 294.918 363.06 295.645 363.018Z" fill="#913A3A"/>
<path d="M288.753 394.916C288.306 395.452 284.542 396.346 283.872 397.58C283.291 398.68 284.167 401.513 283.586 402.944C281.279 408.675 279.518 410.695 279.518 410.695C279.518 410.695 273.099 417.391 267.628 417.883C264.883 418.124 260.217 416.408 257.24 414.423C256.667 414.039 256.247 413.547 255.943 412.974C254.763 410.024 261.727 403.48 261.727 403.48C261.727 403.48 276.103 383.955 279.75 381.703C283.398 379.449 289.084 381.059 291.596 383.919C292.615 387.835 290.988 392.216 288.753 394.916Z" fill="#197F3B"/>
<path d="M291.596 383.92C289.083 381.059 283.398 379.45 279.75 381.703C276.103 383.956 261.727 403.48 261.727 403.48C261.727 403.48 254.763 410.024 255.943 412.975C255.102 411.428 255.129 409.336 255.29 407.521C255.657 403.159 260.252 399.136 260.252 399.136L266.385 388.774L268.655 379.584C268.655 379.584 270.953 379.825 273.161 378.734C275.378 377.644 274.297 375.829 277.265 373.281C280.242 370.742 288.806 374.488 288.806 374.488C288.806 374.488 290.702 381.408 291.309 383.017C291.417 383.312 291.515 383.616 291.596 383.92Z" fill="#5BC6B6"/>
<path d="M359.348 242.56C360.766 248.519 362.988 253.618 352.69 272.446C348.517 280.074 338.155 286.464 338.155 286.464C338.155 286.464 319.075 314.23 314.369 318.104C309.661 321.977 296.217 324.086 294.235 323.116C292.253 322.147 288.355 317.953 288.788 313.833C289.222 309.714 303.582 268.452 305.068 266.514C306.555 264.575 314.483 245.792 325.88 242.701C337.276 239.611 358.681 239.755 359.348 242.56Z" fill="#1C211C"/>
<path d="M316.797 315.502C316.797 315.502 315.76 328.643 310.531 341.258C307.151 349.411 301.679 352.79 301.679 352.79C301.679 352.79 300.25 355.043 299.49 356.375C299.338 358.405 297.175 362.928 295.645 363.018C294.107 363.107 274.172 359.835 274.172 359.835C274.172 359.835 272.5 358.53 272.392 357.672C272.285 356.84 280.224 336.859 281.001 335.035C281.011 335.009 281.02 334.991 281.029 334.965C281.037 334.946 281.047 334.937 281.047 334.919C281.056 334.91 281.056 334.901 281.056 334.901C282.531 330.048 283.711 326.936 283.711 326.936C283.711 326.936 284.632 321.751 285.123 320.24C285.57 318.854 289.146 312.158 289.146 312.158C289.146 312.158 294.618 311.827 301.054 312.212C311.844 312.855 316.797 315.502 316.797 315.502Z" fill="#1C211C"/>
<path d="M360.407 247.471C361.43 248.341 361.536 249.449 361.567 250.491C361.624 251.547 361.549 252.609 361.378 253.657C361.198 254.7 360.897 255.738 360.546 256.721L359.514 259.586C359.188 260.548 358.851 261.508 358.499 262.463C358.157 263.422 357.812 264.383 357.423 265.329C357.041 266.278 356.611 267.208 356.124 268.113C355.892 268.572 355.62 269.011 355.356 269.452C355.099 269.895 354.887 270.382 353.813 270.348C353.235 269.435 353.518 269.045 353.728 268.593L354.327 267.236L355.54 264.52C356.377 262.716 357.144 260.87 357.827 258.989C358.143 258.04 358.46 257.09 358.746 256.131C359.019 255.196 359.218 254.277 359.36 253.328C359.515 252.386 359.607 251.434 359.683 250.475C359.726 249.502 359.727 248.588 360.407 247.471Z" fill="#1C211C"/>
<path d="M301.144 148.449C301.144 148.449 299.91 154.108 300.017 154.751C300.125 155.395 300.821 155.556 301.411 155.556C302.002 155.556 302.794 155.556 302.794 155.556C302.794 155.556 303.128 156.039 303.128 154.269C303.128 152.499 301.144 148.449 301.144 148.449Z" fill="#913A3A"/>
<path d="M296.128 144.526C296.128 144.526 295.887 145.53 296.37 146.029C296.37 146.029 296.999 149.96 299.91 150.335C302.792 150.707 304.656 148.871 304.899 147.431C305.139 145.99 304.764 140.921 304.764 140.921L304.416 141.136C304.416 141.136 304.364 145.694 304.388 147.117C304.413 148.54 302.415 150.264 299.882 149.799C296.999 149.27 296.687 144.213 296.687 144.213L296.128 144.526Z" fill="#1C211C"/>
<path d="M339.63 141.181C339.515 146.008 334.821 153.849 334.821 153.849L335.706 155.762C335.706 155.762 338.557 163.602 338.648 164.46C338.736 165.319 338.746 167.402 336.6 169.824C334.454 172.247 329.832 175.626 323.949 174.643C318.077 173.669 317.183 170.37 317.183 170.37C317.183 170.37 316.386 166.579 316.029 164.639C316.011 164.541 315.994 164.442 315.975 164.353C315.913 163.995 315.868 163.736 315.851 163.602C315.787 163.066 315.448 161.412 315.69 159.365C313.856 161.644 311.935 164.022 311.657 164.46C311.238 165.14 309.414 166.4 308.1 166.293C307.957 166.284 307.822 166.257 307.688 166.213C307.51 166.159 307.349 166.061 307.206 165.918C305.829 164.532 302.082 153.938 301.376 150.952C300.662 147.966 301.645 146.768 301.868 145.919C302.082 145.078 301.556 144.989 301.064 144.14C300.572 143.29 299.811 138.132 301.064 133.582C302.306 129.04 307.921 118.178 323.771 119.242C339.63 120.315 339.746 136.353 339.63 141.181Z" fill="#913A3A"/>
<path d="M316.029 164.639C315.492 164.8 314.241 165.166 313.365 165.444C312.319 165.774 309.655 166.498 308.099 166.293C309.413 166.4 311.237 165.14 311.656 164.46C311.934 164.022 313.856 161.644 315.689 159.364C315.448 161.412 315.787 163.065 315.85 163.602C315.867 163.736 315.913 163.995 315.974 164.353C315.993 164.442 316.01 164.541 316.029 164.639Z" fill="#1C211C"/>
<path d="M342.875 139.732C342.875 139.732 342.875 141.02 342.875 143.433C342.875 145.847 341.75 147.065 341.75 147.065C341.75 147.065 342.392 149.87 341.75 151.318C341.106 152.767 338.209 154.215 338.209 154.215L337.297 156.951C337.297 156.951 336.638 158.358 335.259 158.399C333.88 158.44 332.577 156.951 332.577 156.951C332.577 156.951 331.289 158.399 328.714 158.399C326.14 158.399 326.14 156.629 326.14 156.629C320.991 155.985 321.554 151.238 321.554 151.238C319.783 150.272 320.014 148.502 320.014 148.502C317.91 148.181 315.254 139.679 315.254 139.679C315.254 139.679 317.426 147.065 316.997 147.8C316.569 148.535 313.03 140.782 312.063 138.971C309.65 138.11 310.048 135.659 310.048 135.659C310.048 135.659 308.283 136.263 306.025 134.37C304.456 133.054 304.697 129.956 304.697 129.956C304.697 129.956 301.721 130.862 300.869 134.37C300.869 134.37 300.763 135.407 299.347 135.659C298.221 135.861 295.897 134.099 297.667 132.973C297.667 132.973 295.887 131.364 298.139 128.468C298.139 128.468 297.013 125.571 298.945 123.962C300.876 122.353 300.876 122.353 300.876 122.353C300.876 122.353 302.485 117.364 306.668 118.008C306.668 118.008 308.287 113.663 312.063 114.468C312.063 114.468 317.165 111.051 320.849 114.369C320.849 114.369 323.726 112.698 325.336 114.629C325.336 114.629 328.225 112.623 332.168 114.173C333.366 114.643 334.346 116.721 334.346 116.721C334.346 116.721 336.76 114.951 338.692 116.077C340.623 117.203 340.623 119.169 340.623 119.169C340.623 119.169 342.498 119.804 342.875 122.031C343.227 124.104 343.307 124.029 343.037 124.284C343.037 124.284 345.129 128.79 344.646 130.077C344.163 131.364 344.163 131.364 344.163 131.364C344.163 131.364 345.129 133.671 343.52 134.958C343.52 134.958 345.451 137.211 342.875 139.732Z" fill="#1C211C"/>
<path d="M317.842 134.164L296.127 144.526C296.127 144.526 295.833 144.595 296.369 146.029C296.558 146.533 318.415 135.106 318.415 135.106C318.938 134.904 319.197 134.744 320.013 135.065C320.829 135.387 322.1 136.959 322.582 137.176C323.065 137.394 323.399 136.031 322.707 134.958C322.257 134.262 319.271 133.296 317.842 134.164Z" fill="#1C211C"/>
<path d="M317.625 147.749L315.254 139.679C315.254 139.679 315.338 134.614 318.827 134.378C322.317 134.142 323.609 139.072 323.216 141.511C322.823 143.951 320.379 145.938 320.379 145.938C320.379 145.938 320.477 148.831 317.625 147.749Z" fill="#913A3A"/>
<path d="M317.143 140.859C316.549 140.283 316.605 139.579 316.644 138.915C316.718 138.244 316.941 137.574 317.31 136.962C317.49 136.656 317.722 136.369 317.987 136.115C318.306 135.795 318.771 135.664 319.143 135.66C319.53 135.651 319.9 135.745 320.222 135.934C320.534 136.116 320.83 136.443 320.848 136.836C320.492 136.715 320.22 136.712 319.946 136.68C319.68 136.648 319.417 136.639 319.176 136.646C318.929 136.66 318.735 136.686 318.595 136.807C318.402 136.98 318.212 137.172 318.095 137.42C317.823 137.894 317.719 138.467 317.641 139.04C317.525 139.623 317.583 140.187 317.143 140.859Z" fill="#1C211C"/>
<path d="M317.069 138.743C317.773 138.56 318.306 138.874 318.799 139.24C319.048 139.427 319.271 139.664 319.457 139.963C319.643 140.251 319.763 140.657 319.732 141.033C319.665 141.694 319.47 142.245 319.284 142.803C319.069 143.348 318.782 143.851 318.304 144.238L318.274 143.896C318.588 144.334 318.885 144.789 319.158 145.265C318.703 144.957 318.273 144.626 317.861 144.278L317.78 144.211L317.829 143.937C317.93 143.377 318.162 142.896 318.383 142.42C318.622 141.958 318.802 141.445 318.799 140.994C318.792 140.666 318.527 140.324 318.163 139.988C317.808 139.637 317.372 139.386 317.069 138.743Z" fill="#1C211C"/>
<path d="M346.309 248.782C346.309 248.782 352.181 268.594 332.416 280.698C324.971 285.258 320.756 284.233 308.009 280.47C306.376 279.988 301.841 278.928 291.541 274.422C288.852 273.199 255.638 258.579 252.578 255.155C249.519 251.73 248.064 238.784 248.064 234.381C248.064 229.978 254.428 228.021 256.261 228.021C258.092 228.021 301.652 236.75 314.356 239.916C327.804 243.267 344.112 245.077 346.309 248.782Z" fill="#1C211C"/>
<path d="M263.726 320.815C255.557 320.636 255.291 315.568 255.291 315.568C255.291 315.568 253.811 304.848 253.023 300.952C253.215 301.072 253.001 294.469 262.798 294.572C267.537 294.622 270.104 296.418 270.786 298.892L272.797 313.05C272.797 313.05 273.269 321.022 263.726 320.815Z" fill="#913A3A"/>
<path d="M278.731 320.651C278.338 323.566 275.352 331.862 274.029 332.05C272.706 332.237 270.14 334.258 270.14 334.258C270.14 334.258 266.966 348.124 265.428 349.948C263.882 351.771 255.791 355.857 253.637 355.374C251.482 354.9 248.693 352.299 247.897 351.816C247.28 350.582 248.952 344.923 252.001 342.939C255.049 340.945 263.319 334.598 263.667 333.382C264.016 332.166 262.237 328.965 264.624 326.328C267.02 323.691 272.223 318.103 273.707 318.121C275.182 318.13 277.497 318.818 278.731 320.651Z" fill="#197F3B"/>
<path d="M278.731 320.651C277.497 318.818 275.182 318.13 273.707 318.121C272.223 318.103 267.02 323.691 264.624 326.328C262.237 328.965 264.016 332.166 263.667 333.382C263.319 334.597 255.049 340.945 252.001 342.938C248.952 344.923 247.28 350.582 247.897 351.816C247.11 351.342 246.869 347.972 246.628 347.015C246.386 346.058 251.402 335.08 251.402 335.08L255.165 323.744L255.416 316.208C255.416 316.208 259.582 312.435 262.496 310.701C264.15 309.726 270.131 309.887 272.5 310.987C272.5 310.987 279.124 317.745 278.731 320.651Z" fill="#5BC6B6"/>
<path d="M347.863 262.836C347.885 264.042 347.621 265.224 347.254 266.355C346.894 267.495 346.383 268.579 345.787 269.612C344.568 271.661 343.1 273.57 341.407 275.258C339.72 276.954 337.807 278.417 335.775 279.66C333.734 280.927 331.468 281.834 329.178 282.481C324.575 283.75 319.769 284.066 315.058 283.58C312.699 283.355 310.371 282.874 308.103 282.223L306.409 281.7L304.756 281.073C303.673 280.628 302.478 280.385 301.841 278.928C302.601 278.625 303.204 278.647 303.766 278.776C304.314 278.939 304.837 279.158 305.387 279.307L307.01 279.814L308.649 280.261C309.739 280.57 310.844 280.804 311.946 281.055C313.057 281.255 314.167 281.464 315.288 281.596C319.75 282.213 324.367 282.004 328.656 280.697C330.808 280.059 332.816 279.098 334.717 277.943C336.634 276.779 338.382 275.368 340.004 273.833C341.606 272.277 343.057 270.556 344.279 268.676C345.517 266.801 346.674 264.894 347.863 262.836Z" fill="#1C211C"/>
<path d="M271.392 297.916C271.392 297.916 271.23 298.246 270.783 298.745C269.22 297.837 266.75 297.158 262.098 298.059C255.434 299.354 253.476 302.378 253.274 302.279C253.266 302.268 252.87 301.963 252.87 301.963C249.128 289.94 239.887 247.87 239.525 244.531C239.3 242.465 243.783 232.665 244.091 232.094C244.794 230.788 250.204 228.487 250.204 228.487C252.439 226.629 263.495 229.276 263.495 229.276C268.337 231.352 269.948 242.596 270.943 249.399C271.94 256.202 272.541 265.104 272.284 270.345C272.209 271.884 271.534 276.46 271.534 276.46L271.392 297.916Z" fill="#1C211C"/>
<path d="M262.738 247.066C262.921 248.613 263.188 250.096 263.64 251.518C264.078 252.94 264.661 254.3 265.357 255.598C266.037 256.907 266.871 258.128 267.745 259.322C268.637 260.487 269.619 261.654 270.649 262.644L269.491 263.456C268.96 261.689 268.508 259.922 268.168 258.113C268 257.209 267.869 256.296 267.794 255.376C267.747 254.467 267.679 253.495 268.041 252.635C267.945 253.083 267.994 253.534 268.057 253.976C268.119 254.419 268.216 254.858 268.324 255.293C268.532 256.167 268.799 257.028 269.075 257.885C269.628 259.595 270.235 261.304 270.879 262.971C271.024 263.346 270.837 263.768 270.461 263.913C270.214 264.009 269.946 263.961 269.751 263.809L269.719 263.785C268.426 262.772 267.338 261.652 266.352 260.394C265.361 259.154 264.528 257.783 263.862 256.334C263.204 254.881 262.732 253.337 262.526 251.758C262.305 250.187 262.38 248.578 262.738 247.066Z" fill="#1C211C"/>
<path d="M337.083 158.962C336.563 158.847 328.152 159.059 325.336 160.169C323.477 160.901 314.803 164.675 314.357 165.855C313.91 167.035 313.91 169.073 313.91 169.073C313.91 169.073 322.772 164.564 325.648 163.987C328.523 163.41 339.098 162.67 339.819 162.818C339.819 162.818 337.806 159.123 337.083 158.962Z" fill="#1C211C"/>
<path d="M356.823 208.244L357.144 201.69C357.144 201.69 359.147 191.598 359.075 183.583C359.004 175.714 354.791 168.353 353.201 167.088C352.247 166.328 342.835 163.381 342.835 163.381C342.835 163.381 340.519 163.065 338.737 162.532C336.956 161.997 326.393 163.425 321.458 165.026C312.622 167.893 309.574 170.575 309.574 170.575C309.574 170.575 296.873 182.944 294.363 195.691C292.775 203.746 303.128 211.502 303.128 211.502L304.899 217.054C303.878 222.284 302.784 228.533 303.519 232.669C303.519 232.669 298.023 235.914 297.565 236.59C297.255 237.048 302.969 243.756 308.52 248.858C309.284 249.56 314.231 244.058 314.231 244.058C314.231 244.058 316.07 252.702 316.591 252.97C323.973 256.764 343.6 254.87 343.6 254.87C347.462 255.353 364.869 246.663 364.869 242.318C364.869 237.974 356.823 208.244 356.823 208.244Z" fill="#4585FC"/>
<path d="M352.479 183.905C353.116 185.667 352.852 187.346 352.546 188.986C352.262 190.638 351.876 192.27 351.422 193.885C350.481 197.105 349.283 200.253 347.845 203.297C347.153 204.833 346.357 206.326 345.481 207.779C344.619 209.239 343.648 210.65 342.53 211.955C341.419 213.262 340.169 214.48 338.736 215.47C338.398 215.741 338.013 215.953 337.643 216.179C337.275 216.412 336.897 216.626 336.499 216.809C336.098 216.978 335.748 217.254 335.292 217.304C334.845 217.365 334.362 217.343 333.812 217.054C334.226 215.842 334.934 215.619 335.612 215.196C335.955 215.008 336.28 214.789 336.597 214.554C336.912 214.32 337.248 214.118 337.547 213.861C338.8 212.912 339.921 211.79 340.983 210.61C343.123 208.251 344.826 205.464 346.224 202.538C346.892 201.059 347.505 199.551 348.038 198.01C348.56 196.468 349.022 194.905 349.453 193.331C349.896 191.761 350.297 190.18 350.701 188.596C351.078 187 351.414 185.424 352.479 183.905Z" fill="#702303"/>
<path d="M353.765 209.759C353.977 211.074 353.383 211.988 352.764 212.811C352.168 213.668 351.469 214.445 350.739 215.19C349.237 216.639 347.538 217.878 345.75 218.948C343.988 220.064 342.065 220.96 340.044 221.56C339.536 221.697 339.031 221.86 338.511 221.951C337.991 222.034 337.466 222.09 336.943 222.153C336.422 222.246 335.893 222.214 335.368 222.206C334.848 222.204 334.304 222.279 333.812 221.345C334.323 220.373 334.785 220.408 335.269 220.366C335.749 220.325 336.226 220.272 336.695 220.168C337.167 220.082 337.636 219.988 338.109 219.922C338.577 219.831 339.033 219.684 339.501 219.583C340.443 219.4 341.331 219.026 342.243 218.725C343.114 218.316 344.002 217.936 344.822 217.419C346.468 216.403 347.951 215.136 349.295 213.744C349.973 213.052 350.638 212.35 351.292 211.632C351.942 210.894 352.516 210.166 353.765 209.759Z" fill="#702303"/>
<path d="M303.128 211.503C303.821 211.582 304.386 211.689 304.945 211.792L306.538 212.129L308.119 212.507C308.667 212.667 309.231 212.785 309.887 213.058C308.843 213.977 307.417 214.155 306.14 213.873C305.499 213.731 304.888 213.452 304.357 213.064C303.836 212.668 303.363 212.172 303.128 211.503Z" fill="#702303"/>
<path d="M357.369 200.48C356.71 199.182 356.828 198.026 356.938 196.858C357.022 195.689 357.143 194.525 357.259 193.361C357.531 191.037 357.78 188.71 357.872 186.379C357.892 185.212 357.888 184.048 357.852 182.888C357.798 181.73 357.698 180.578 357.57 179.442C357.435 178.306 357.27 177.185 357.033 176.102C356.908 175.565 356.786 175.028 356.604 174.528C356.54 174.258 356.375 174.058 356.364 173.765C356.349 173.472 356.389 173.16 356.607 172.627C357.133 172.596 357.545 172.748 357.789 172.985C358.038 173.221 358.171 173.533 358.304 173.821C358.579 174.407 358.81 175.001 358.97 175.605C359.314 176.808 359.513 178.026 359.61 179.236C359.792 181.657 359.747 184.052 359.66 186.436C359.593 188.818 359.499 191.197 359.295 193.567C359.174 194.75 359.026 195.929 358.809 197.099C358.616 198.269 358.407 199.45 357.369 200.48Z" fill="#702303"/>
<path d="M314.231 244.058C315.301 237.659 316.488 231.287 317.807 224.942C318.444 221.764 319.147 218.603 319.843 215.433C320.194 213.844 320.603 212.263 320.965 210.704C321.327 209.136 321.674 207.564 321.983 205.985C322.64 202.835 323.167 199.661 323.565 196.473C323.984 193.291 324.221 190.086 324.268 186.885C324.292 183.687 324.116 180.474 323.423 177.359C322.759 174.272 321.504 171.152 318.966 169.073C319.644 169.517 320.282 170.035 320.846 170.634C321.389 171.247 321.895 171.903 322.308 172.614C323.165 174.022 323.792 175.564 324.266 177.14C325.188 180.307 325.561 183.598 325.657 186.869C325.844 193.429 325.002 199.949 323.734 206.339C323.097 209.526 322.263 212.714 321.493 215.822L319.172 225.251C317.626 231.542 315.981 237.812 314.231 244.058Z" fill="#702303"/>
<path d="M259.229 173.022C258.014 173.667 255.933 172.862 255.933 172.862L256.011 172.224L257.967 170.004L257.988 169.98C257.988 169.98 259.842 170.802 260.072 171.207C260.292 171.612 260.44 172.388 259.229 173.022Z" fill="#913A3A"/>
<path d="M263.621 180.774L261.409 185.112L260.924 188.677C261.479 191.725 260.582 193.381 257.214 196.473C255.234 198.302 251.977 197.318 251.977 197.318C251.977 197.318 247.918 194.201 247.034 192.957C246.375 192.021 245.542 189.109 245.148 186.809L244.115 183.773C244.115 183.773 243.923 181.661 244.051 181.2C244.172 180.727 245.101 178.805 245.101 178.805C245.101 178.805 245.164 178.282 245.173 178.211C245.195 178.042 245.691 176.482 245.791 176.26C245.879 176.046 247.54 174.106 247.75 173.862C247.761 173.844 247.771 173.837 247.771 173.837L249.722 170.625L253.819 169.308L253.828 169.308L256.626 167.2C256.626 167.2 260.135 166.342 260.334 166.412C260.522 166.489 261.779 167.624 261.037 168.614C260.303 169.605 258.186 169.761 258.186 169.761L257.988 169.98L257.967 170.004L256.011 172.224L255.508 176.342C255.577 176.431 255.657 176.521 255.736 176.612C256.152 177.104 256.614 178.115 257.035 179.248L258.782 179.462L261.073 175.465C261.073 175.465 260.848 172.293 262.73 171.19C264.623 170.08 264.952 172.39 264.95 172.85C264.947 173.317 263.621 180.774 263.621 180.774Z" fill="#913A3A"/>
<path d="M262.662 188.726C263.203 189.469 264.304 193.048 260.839 197.407C258.12 200.827 256.672 201.01 255.21 200.521C253.468 198.858 251.923 197.284 251.598 196.857C250.617 195.593 251.245 191.41 254.214 188.648C257.173 185.885 260.365 187.689 260.365 187.689C260.365 187.689 261.288 188.108 262.662 188.726Z" fill="#913A3A"/>
<path d="M291.22 213.693C288.631 215.493 285.354 214.962 282.611 214.158C280.837 213.639 260.692 205.155 255.878 201.305C255.375 200.903 255.303 200.69 255.21 200.521C255.113 200.346 256.129 197.322 256.482 196.688C256.541 196.581 259.378 196.729 259.378 196.729L257.216 194.807C257.216 194.807 257.045 194.143 258.392 191.79C258.989 190.748 261.204 189.521 262.662 188.726C263.318 188.366 263.886 188.138 264.173 188.146C265.09 188.168 275.556 191.998 275.556 191.998L272.469 190.884C273.45 191.19 284.315 192.592 284.643 192.64C287.1 192.95 288.142 194.519 289.772 196.43C292.102 199.174 295.709 210.577 291.22 213.693Z" fill="#4585FC"/>
<path d="M316.029 170.87C315.439 169.583 314.185 168.226 312.622 168.649C310.571 169.205 307.802 170.037 304.98 171.433C302.485 172.667 298.295 178.299 298.295 178.299C298.295 178.299 282.993 192.68 281.854 194.214C279.386 197.541 278.494 204.873 280.438 207.909C285.204 215.348 291.744 213.236 291.744 213.236C293.458 212.168 299.499 205.924 299.499 205.924C299.499 205.924 308.627 198.256 309.887 197.02C318.358 188.702 318.007 175.188 316.029 170.87Z" fill="#4585FC"/>
<path d="M309.888 197.02C309.224 198.263 308.373 199.283 307.466 200.236C306.568 201.202 305.454 201.907 304.454 202.749C303.452 203.588 302.563 204.563 301.446 205.268C300.339 205.982 299.191 206.648 297.87 207.109C298.552 205.888 299.406 204.872 300.302 203.905C301.188 202.927 302.303 202.221 303.304 201.379C304.306 200.54 305.195 199.565 306.3 198.848C307.397 198.119 308.547 197.457 309.888 197.02Z" fill="#702303"/>
<path d="M305.804 200.449C306.455 200.152 307.03 199.958 307.602 199.772C308.17 199.595 308.723 199.448 309.276 199.307C309.829 199.168 310.39 199.058 310.973 198.946C311.568 198.858 312.162 198.738 312.89 198.737C312.217 199.999 310.982 200.722 309.698 201.045C309.051 201.206 308.376 201.247 307.711 201.167C307.05 201.078 306.38 200.894 305.804 200.449Z" fill="#702303"/>
<path d="M277.944 197.824C278.132 197.19 278.387 196.571 278.709 195.981C279.016 195.381 279.432 194.84 279.879 194.328C280.334 193.822 280.852 193.368 281.423 192.984C282 192.595 282.586 192.272 283.305 192.054L283.363 192.91C282.621 192.882 281.747 192.999 280.94 193.153C280.12 193.32 279.301 193.527 278.495 193.787C277.68 194.023 276.885 194.325 276.08 194.618L274.879 195.082C274.484 195.251 274.086 195.418 273.68 195.571C274.383 195.064 275.123 194.614 275.881 194.185C276.646 193.775 277.431 193.395 278.246 193.078C279.064 192.77 279.896 192.482 280.764 192.302C281.638 192.118 282.485 191.976 283.462 192.044L285.848 192.21L283.521 192.899C282.979 193.06 282.381 193.339 281.852 193.655C281.318 193.984 280.799 194.35 280.332 194.781C279.87 195.215 279.419 195.674 279.03 196.192C278.617 196.694 278.293 197.258 277.944 197.824Z" fill="#702303"/>
<defs>
<linearGradient id="paint0_linear_273_433" x1="173.666" y1="124.94" x2="173.666" y2="379.938" gradientUnits="userSpaceOnUse">
<stop stop-color="white"/>
<stop offset="1" stop-color="#1C211C"/>
</linearGradient>
</defs>
</svg>
